%TF.GenerationSoftware,KiCad,Pcbnew,9.0.3*%
%TF.CreationDate,2026-01-15T12:48:40+01:00*%
%TF.ProjectId,F_F,465f462e-6b69-4636-9164-5f7063625858,rev?*%
%TF.SameCoordinates,Original*%
%TF.FileFunction,Copper,L1,Top*%
%TF.FilePolarity,Positive*%
%FSLAX46Y46*%
G04 Gerber Fmt 4.6, Leading zero omitted, Abs format (unit mm)*
G04 Created by KiCad (PCBNEW 9.0.3) date 2026-01-15 12:48:40*
%MOMM*%
%LPD*%
G01*
G04 APERTURE LIST*
%TA.AperFunction,NonConductor*%
%ADD10C,0.200000*%
%TD*%
%TA.AperFunction,ComponentPad*%
%ADD11C,2.400000*%
%TD*%
%TA.AperFunction,ComponentPad*%
%ADD12C,2.540000*%
%TD*%
%TA.AperFunction,ComponentPad*%
%ADD13C,1.600000*%
%TD*%
%TA.AperFunction,ComponentPad*%
%ADD14C,2.740000*%
%TD*%
%TA.AperFunction,ComponentPad*%
%ADD15C,2.700000*%
%TD*%
%TA.AperFunction,Conductor*%
%ADD16C,0.800000*%
%TD*%
G04 APERTURE END LIST*
D10*
X115040000Y-106890000D02*
G75*
G02*
X111040000Y-106890000I-2000000J0D01*
G01*
X111040000Y-106890000D02*
G75*
G02*
X115040000Y-106890000I2000000J0D01*
G01*
X115040000Y-72890000D02*
G75*
G02*
X111040000Y-72890000I-2000000J0D01*
G01*
X111040000Y-72890000D02*
G75*
G02*
X115040000Y-72890000I2000000J0D01*
G01*
X71040000Y-106890000D02*
G75*
G02*
X67040000Y-106890000I-2000000J0D01*
G01*
X67040000Y-106890000D02*
G75*
G02*
X71040000Y-106890000I2000000J0D01*
G01*
X71040000Y-72890000D02*
G75*
G02*
X67040000Y-72890000I-2000000J0D01*
G01*
X67040000Y-72890000D02*
G75*
G02*
X71040000Y-72890000I2000000J0D01*
G01*
D11*
%TO.P,Q1,1,C*%
%TO.N,Net-(Q1-C)*%
X91115000Y-84850000D03*
%TO.P,Q1,2,B*%
%TO.N,Net-(Q1-B)*%
X91115000Y-87850000D03*
%TO.P,Q1,3,E*%
%TO.N,Net-(Q1-E)*%
X91115000Y-90850000D03*
%TD*%
D12*
%TO.P,C2,1*%
%TO.N,Net-(C2-Pad1)*%
X82704888Y-96600000D03*
%TO.P,C2,2*%
%TO.N,GNDREF*%
X82704888Y-93600000D03*
%TD*%
D11*
%TO.P,Q2,1,C*%
%TO.N,Net-(Q2-C)*%
X98130000Y-82390000D03*
%TO.P,Q2,2,B*%
%TO.N,Net-(Q1-C)*%
X98130000Y-85390000D03*
%TO.P,Q2,3,E*%
%TO.N,Net-(Q2-E)*%
X98130000Y-88390000D03*
%TD*%
D13*
%TO.P,C3,1*%
%TO.N,Net-(C3-Pad1)*%
X109410000Y-76480000D03*
%TO.P,C3,2*%
%TO.N,Net-(C3-Pad2)*%
X109410000Y-78980000D03*
%TD*%
D12*
%TO.P,J2,1,Pin_1*%
%TO.N,OUTPUT_INPUT*%
X111930000Y-96370000D03*
%TD*%
%TO.P,R4,1*%
%TO.N,Net-(C3-Pad1)*%
X94540000Y-76680000D03*
%TO.P,R4,2*%
%TO.N,Net-(R4-Pad2)*%
X104700000Y-76680000D03*
%TD*%
%TO.P,,1,Pin_1*%
%TO.N,GNDREF*%
X71290000Y-100410000D03*
%TD*%
%TO.P,C1,1*%
%TO.N,Net-(Q1-B)*%
X84300000Y-87950000D03*
%TO.P,C1,2*%
%TO.N,AUDIO_INPUT*%
X80800000Y-87950000D03*
%TD*%
%TO.P,,1,Pin_1*%
%TO.N,GNDREF*%
X76350000Y-106710000D03*
%TD*%
%TO.P,J4,1,Pin_1*%
%TO.N,+9V*%
X71570000Y-81600000D03*
%TD*%
%TO.P,R1,1*%
%TO.N,+9V*%
X80880000Y-81580000D03*
%TO.P,R1,2*%
%TO.N,Net-(Q1-C)*%
X91040000Y-81580000D03*
%TD*%
%TO.P,,1,Pin_1*%
%TO.N,+9V*%
X71540000Y-77670000D03*
%TD*%
D14*
%TO.P,RV1,1,1*%
%TO.N,Net-(Q2-E)*%
X93290000Y-100690000D03*
%TO.P,RV1,2,2*%
%TO.N,Net-(C2-Pad1)*%
X88540000Y-100690000D03*
%TO.P,RV1,3,3*%
%TO.N,GNDREF*%
X83790000Y-100690000D03*
%TD*%
D12*
%TO.P,R2,1*%
%TO.N,Net-(Q1-E)*%
X91240000Y-95060000D03*
%TO.P,R2,2*%
%TO.N,Net-(Q2-E)*%
X101400000Y-95060000D03*
%TD*%
%TO.P,J3,1,Pin_1*%
%TO.N,GNDREF*%
X71340000Y-94660000D03*
%TD*%
%TO.P,J1,1,Pin_1*%
%TO.N,AUDIO_INPUT*%
X71510000Y-87940000D03*
%TD*%
D14*
%TO.P,RV2,1,1*%
%TO.N,Net-(C3-Pad2)*%
X108580000Y-100890000D03*
%TO.P,RV2,2,2*%
%TO.N,OUTPUT_INPUT*%
X103830000Y-100890000D03*
%TO.P,RV2,3,3*%
%TO.N,GNDREF*%
X99080000Y-100890000D03*
%TD*%
D15*
%TO.P,RV3,1,1*%
%TO.N,Net-(R4-Pad2)*%
X104570000Y-81780000D03*
%TO.P,RV3,2,2*%
%TO.N,Net-(Q2-C)*%
X107070000Y-91520000D03*
%TO.P,RV3,3,3*%
%TO.N,unconnected-(RV3-Pad3)*%
X109570000Y-81780000D03*
%TD*%
D12*
%TO.P,R5,1*%
%TO.N,+9V*%
X80840000Y-76670000D03*
%TO.P,R5,2*%
%TO.N,Net-(C3-Pad1)*%
X91000000Y-76670000D03*
%TD*%
D16*
%TO.N,AUDIO_INPUT*%
X71510000Y-87940000D02*
X81240000Y-87940000D01*
%TO.N,Net-(Q1-B)*%
X90830000Y-87940000D02*
X83810000Y-87940000D01*
X83810000Y-87940000D02*
X83800000Y-87950000D01*
X91150000Y-87620000D02*
X90830000Y-87940000D01*
%TO.N,Net-(C2-Pad1)*%
X88540000Y-97780000D02*
X87360000Y-96600000D01*
X88540000Y-100690000D02*
X88540000Y-97780000D01*
X87360000Y-96600000D02*
X82704888Y-96600000D01*
%TO.N,Net-(C3-Pad1)*%
X94540000Y-75530000D02*
X96360000Y-73710000D01*
X94540000Y-76680000D02*
X94540000Y-75530000D01*
X91010000Y-76680000D02*
X91000000Y-76670000D01*
X106640000Y-73710000D02*
X109410000Y-76480000D01*
X96360000Y-73710000D02*
X106640000Y-73710000D01*
X94540000Y-76680000D02*
X91010000Y-76680000D01*
%TO.N,Net-(C3-Pad2)*%
X107140000Y-87870000D02*
X109590000Y-90320000D01*
X109590000Y-99880000D02*
X108580000Y-100890000D01*
X109410000Y-78980000D02*
X107610000Y-78980000D01*
X107610000Y-78980000D02*
X107140000Y-79450000D01*
X107140000Y-79450000D02*
X107140000Y-87870000D01*
X109590000Y-90320000D02*
X109590000Y-99880000D01*
%TO.N,OUTPUT_INPUT*%
X111930000Y-96370000D02*
X111930000Y-103360000D01*
X107890000Y-104950000D02*
X103830000Y-100890000D01*
X110340000Y-104950000D02*
X107890000Y-104950000D01*
X111930000Y-103360000D02*
X110340000Y-104950000D01*
%TO.N,+9V*%
X80880000Y-81580000D02*
X71590000Y-81580000D01*
X71590000Y-81580000D02*
X71570000Y-81600000D01*
X80840000Y-81540000D02*
X80880000Y-81580000D01*
X80840000Y-76670000D02*
X80840000Y-81540000D01*
%TO.N,Net-(Q1-E)*%
X91115000Y-94935000D02*
X91240000Y-95060000D01*
X91115000Y-90350000D02*
X91115000Y-94935000D01*
%TO.N,Net-(Q1-C)*%
X91115000Y-81775000D02*
X91300000Y-81590000D01*
X98090000Y-85350000D02*
X98130000Y-85390000D01*
X91115000Y-85350000D02*
X98090000Y-85350000D01*
X91115000Y-85350000D02*
X91115000Y-81775000D01*
%TO.N,Net-(Q2-C)*%
X98130000Y-82890000D02*
X99827056Y-82890000D01*
X107070000Y-90132944D02*
X107070000Y-91520000D01*
X99827056Y-82890000D02*
X107070000Y-90132944D01*
%TO.N,Net-(Q2-E)*%
X98130000Y-87890000D02*
X101400000Y-91160000D01*
X101400000Y-91160000D02*
X101400000Y-95060000D01*
X101400000Y-95060000D02*
X96690000Y-95060000D01*
X93290000Y-98460000D02*
X93290000Y-100690000D01*
X96690000Y-95060000D02*
X93290000Y-98460000D01*
%TO.N,Net-(R4-Pad2)*%
X104570000Y-81780000D02*
X104570000Y-76810000D01*
X104570000Y-76810000D02*
X104700000Y-76680000D01*
%TD*%
%TA.AperFunction,Conductor*%
%TO.N,GNDREF*%
G36*
X86577864Y-92080492D02*
G01*
X86624300Y-92132698D01*
X86636129Y-92189377D01*
X86573584Y-94280176D01*
X86551903Y-94346597D01*
X86497755Y-94390752D01*
X86450123Y-94400467D01*
X78880000Y-94430000D01*
X79040000Y-99020000D01*
X85622112Y-98764955D01*
X85689862Y-98782029D01*
X85737627Y-98833022D01*
X85750909Y-98887980D01*
X85779999Y-102979999D01*
X85780000Y-102980000D01*
X96810000Y-102940000D01*
X96810000Y-98717076D01*
X96829685Y-98650037D01*
X96882489Y-98604282D01*
X96937035Y-98593113D01*
X100890000Y-98690000D01*
X100890003Y-98689999D01*
X100890008Y-98690000D01*
X100890009Y-98690000D01*
X101533002Y-98664948D01*
X101600757Y-98682008D01*
X101648533Y-98732990D01*
X101661817Y-98787081D01*
X101811617Y-109263729D01*
X101792894Y-109331041D01*
X101740750Y-109377546D01*
X101687631Y-109389500D01*
X70380346Y-109389500D01*
X70313307Y-109369815D01*
X70267552Y-109317011D01*
X70257608Y-109247853D01*
X70286633Y-109184297D01*
X70314374Y-109160506D01*
X70316577Y-109159121D01*
X70547206Y-109014208D01*
X70775565Y-108832098D01*
X70982098Y-108625565D01*
X71164208Y-108397206D01*
X71319605Y-108149893D01*
X71446335Y-107886737D01*
X71542803Y-107611045D01*
X71607798Y-107326286D01*
X71640500Y-107036041D01*
X71640500Y-106743959D01*
X71607798Y-106453714D01*
X71542803Y-106168955D01*
X71446335Y-105893263D01*
X71319605Y-105630107D01*
X71164208Y-105382794D01*
X70982098Y-105154435D01*
X70775565Y-104947902D01*
X70547206Y-104765792D01*
X70299893Y-104610395D01*
X70299890Y-104610393D01*
X70036738Y-104483665D01*
X69761046Y-104387197D01*
X69761044Y-104387196D01*
X69541280Y-104337036D01*
X69476286Y-104322202D01*
X69476283Y-104322201D01*
X69476271Y-104322199D01*
X69186047Y-104289500D01*
X69186041Y-104289500D01*
X68893959Y-104289500D01*
X68893952Y-104289500D01*
X68603728Y-104322199D01*
X68603714Y-104322202D01*
X68318955Y-104387196D01*
X68318953Y-104387197D01*
X68043261Y-104483665D01*
X67780109Y-104610393D01*
X67532795Y-104765791D01*
X67304435Y-104947901D01*
X67097901Y-105154435D01*
X66915791Y-105382795D01*
X66769494Y-105615626D01*
X66717159Y-105661917D01*
X66648106Y-105672565D01*
X66584257Y-105644190D01*
X66545885Y-105585801D01*
X66540500Y-105549654D01*
X66540500Y-92319125D01*
X66560185Y-92252086D01*
X66612989Y-92206331D01*
X66665730Y-92195131D01*
X72079115Y-92248996D01*
X86510578Y-92061679D01*
X86577864Y-92080492D01*
G37*
%TD.AperFunction*%
%TD*%
%TA.AperFunction,Conductor*%
%TO.N,+9V*%
G36*
X76028988Y-75732530D02*
G01*
X76095905Y-75752625D01*
X76141335Y-75805708D01*
X76152219Y-75858040D01*
X76052108Y-84067065D01*
X76031607Y-84133860D01*
X75978249Y-84178967D01*
X75928924Y-84189550D01*
X68303300Y-84239197D01*
X68236134Y-84219950D01*
X68190036Y-84167445D01*
X68178502Y-84116706D01*
X68077612Y-75810132D01*
X68096481Y-75742861D01*
X68148725Y-75696469D01*
X68202358Y-75684631D01*
X76028988Y-75732530D01*
G37*
%TD.AperFunction*%
%TD*%
M02*
