M48
; DRILL file {KiCad 9.0.3} date 2026-01-15T12:48:37+0100
; FORMAT={3:3/ absolute / metric / suppress leading zeros}
; #@! TF.CreationDate,2026-01-15T12:48:37+01:00
; #@! TF.GenerationSoftware,Kicad,Pcbnew,9.0.3
; #@! TF.FileFunction,Plated,1,2,PTH
FMAT,2
METRIC,TZ
; #@! TA.AperFunction,Plated,PTH,ComponentDrill
T1C0.800
; #@! TA.AperFunction,Plated,PTH,ComponentDrill
T2C1.000
; #@! TA.AperFunction,Plated,PTH,ComponentDrill
T3C1.200
%
G90
G05
T1
X71290Y-100410
X71340Y-94660
X71510Y-87940
X71540Y-77670
X71570Y-81600
X76350Y-106710
X80800Y-87950
X80840Y-76670
X80880Y-81580
X82705Y-93600
X82705Y-96600
X84300Y-87950
X91000Y-76670
X91040Y-81580
X91115Y-84850
X91115Y-87850
X91115Y-90850
X91240Y-95060
X94540Y-76680
X98130Y-82390
X98130Y-85390
X98130Y-88390
X101400Y-95060
X104700Y-76680
X109410Y-76480
X109410Y-78980
X111930Y-96370
T2
X83790Y-100690
X88540Y-100690
X93290Y-100690
X99080Y-100890
X103830Y-100890
X108580Y-100890
T3
X104570Y-81780
X107070Y-91520
X109570Y-81780
M30
